<svg width="68" height="68" viewBox="0 0 68 68" fill="none" xmlns="http://www.w3.org/2000/svg">
<rect width="68" height="68" rx="20" fill="#0328EE"/>
<g opacity="0.84992" clip-path="url(#clip0_108_3062)">
<path opacity="0.4" d="M15.7522 22.5122H39.5494C40.6503 22.5122 41.5438 23.4052 41.5438 24.5055C41.5438 25.6057 40.6503 26.4988 39.5494 26.4988H15.7522C14.6513 26.4988 13.7578 25.6057 13.7578 24.5055C13.7578 23.4052 14.6513 22.5122 15.7522 22.5122Z" fill="white"/>
<mask id="mask0_108_3062" style="mask-type:alpha" maskUnits="userSpaceOnUse" x="37" y="14" width="18" height="22">
<path fill-rule="evenodd" clip-rule="evenodd" d="M37.418 35.4653V14H54.5791V35.4653H37.418Z" fill="white"/>
</mask>
<g mask="url(#mask0_108_3062)">
<path d="M38.7649 14.1831C39.0163 14.1831 39.2641 14.2531 39.4832 14.3895L53.7355 23.3657C54.1269 23.6134 54.3658 24.0424 54.3658 24.5054C54.3658 24.9685 54.1269 25.3976 53.7355 25.6452L39.4832 34.6214C39.0684 34.8816 38.544 34.8978 38.1148 34.6591C37.6837 34.4221 37.418 33.9716 37.418 33.4817V15.5293C37.418 15.0393 37.6837 14.5887 38.1148 14.3518C38.3176 14.2387 38.5422 14.1831 38.7649 14.1831Z" fill="white"/>
</g>
<path opacity="0.4" d="M52.319 46.0588H28.5218C27.4208 46.0588 26.5273 45.1658 26.5273 44.0655C26.5273 42.9652 27.4208 42.0723 28.5218 42.0723H52.319C53.4198 42.0723 54.3134 42.9652 54.3134 44.0655C54.3134 45.1658 53.4198 46.0588 52.319 46.0588Z" fill="white"/>
<mask id="mask1_108_3062" style="mask-type:alpha" maskUnits="userSpaceOnUse" x="13" y="33" width="18" height="22">
<path fill-rule="evenodd" clip-rule="evenodd" d="M30.5146 33.106V54.5712H13.3535V33.106H30.5146Z" fill="white"/>
</mask>
<g mask="url(#mask1_108_3062)">
<path d="M29.1673 54.3879C28.9159 54.3879 28.6681 54.3179 28.449 54.1816L14.1968 45.2054C13.8053 44.9577 13.5664 44.5287 13.5664 44.0656C13.5664 43.6026 13.8053 43.1736 14.1968 42.9259L28.449 33.9497C28.8639 33.6894 29.3883 33.6733 29.8175 33.912C30.2485 34.1489 30.5143 34.5994 30.5143 35.0894V53.0419C30.5143 53.5318 30.2485 53.9823 29.8175 54.2193C29.6145 54.3323 29.39 54.3879 29.1673 54.3879Z" fill="white"/>
</g>
</g>
<defs>
<clipPath id="clip0_108_3062">
<rect width="42" height="41" fill="white" transform="translate(13 14)"/>
</clipPath>
</defs>
</svg>
