<svg width="182" height="30" viewBox="0 0 182 30" fill="none" xmlns="http://www.w3.org/2000/svg">
<path d="M181.264 7.24503C180.085 5.12172 177.542 3.51134 174.78 3.51134C172.35 3.51134 170.214 4.49945 170.214 7.06152C170.214 9.21892 172.904 10.6823 175.704 12.4762C178.759 14.3783 181.929 16.718 181.929 20.7811C181.929 26.0863 176.735 29.3412 170.73 29.3412C168.262 29.3412 165.684 28.866 162.774 27.7685L163.251 20.707C164.653 23.5254 167.269 25.7558 171.134 25.7558C174.119 25.7558 176.328 24.3301 176.328 21.8409C176.328 19.7189 174.521 18.4025 172.314 17.0862C167.671 14.3066 164.726 12.0727 164.726 8.04963C164.726 2.01154 169.809 0 175.076 0C178.132 0 180.049 0.549345 182 0.549345L181.264 7.24503ZM155.517 13.5725C154.851 14.6712 154.008 16.1687 153.489 17.2685C153.049 19.353 152.827 22.1351 152.827 25.2065C152.827 26.4875 153.049 28.2061 153.637 28.7919H145.94C147.301 27.512 147.855 19.6483 147.783 17.1592C146.751 13.6113 145.349 10.2082 143.213 6.07341C141.853 3.47725 140.267 1.02339 139.273 0.549345C141.003 0.404628 143.213 0.294091 144.283 0.294091C146.197 0.294091 146.714 0.549344 147.894 3.11137C149.732 7.24617 151.096 10.3529 151.907 12.6597C153.86 9.6224 155.222 7.53789 156.991 4.68415C157.432 3.98894 157.801 3.11137 157.801 2.26912C157.801 1.60924 157.689 0.878714 157.396 0.549345H165.021C163.548 0.878714 156.916 11.2328 155.517 13.5725ZM128.737 7.17324L124.171 17.0121H131.61L128.737 7.17324ZM137.689 29.0472C135.256 29.0472 135.074 28.9754 133.12 22.3173L132.422 19.8659C131.244 20.4141 129.142 20.6705 125.791 20.6705H122.402L121.813 21.9139C120.966 23.7819 119.824 25.9734 119.824 27.5132C119.824 27.8791 119.861 28.2802 120.009 28.7931H99.8958C101.039 27.5132 101.407 23.3796 101.959 15.8781L102.069 14.0866C102.364 9.80587 102.588 6.51332 102.549 4.21006C102.512 2.30796 102.327 1.09988 101.812 0.551717H109.586C108.479 1.39392 108.073 5.92874 107.559 13.4302L107.411 15.2217C107.226 18.0026 106.859 20.8552 106.859 23.636C106.859 24.9147 107.374 25.2076 108.702 25.2076C113.415 25.2076 114.596 25.0982 116.73 23.6713C118.056 21.2563 119.568 18.219 121.039 15.0735L123.031 10.8669C124.909 6.91566 126.749 2.89025 126.749 2.12326C126.749 1.57278 126.603 1.06222 126.383 0.549345H132.571C132.571 0.549345 135.075 9.76941 135.628 11.7433L136.842 16.2075C138.941 23.7078 140.269 27.365 142.037 28.7919C140.561 28.9754 138.462 29.0472 137.689 29.0472ZM87.5574 29.3412C80.2269 29.3412 75.9902 23.3419 75.9902 16.611C75.9902 7.24617 81.1093 0 90.8715 0C93.9285 0 95.3665 0.549345 97.8325 0.549345L97.0969 7.75672C95.6969 5.23231 93.4121 3.51253 90.3562 3.51253C84.2789 3.51253 81.8105 10.0258 81.8105 15.6228C81.8105 21.6951 85.2371 25.0229 89.8032 25.0229C92.2715 25.0229 94.4438 24.3642 98.0918 21.8409C96.6184 26.5251 93.1918 29.3412 87.5574 29.3412ZM62.1417 3.98894C61.4417 3.98894 60.5924 3.98894 59.9315 4.06187C59.71 5.26877 59.5253 7.35443 59.267 10.7187L59.119 12.6962C59.4897 12.7702 59.967 12.8079 60.41 12.8079C63.9444 12.8079 66.3773 10.6834 66.3773 7.46615C66.3773 5.26877 64.8304 3.98894 62.1417 3.98894ZM72.4167 30C70.3179 30 69.8015 29.6694 69.1027 28.7178L61.1456 17.7426C60.519 16.9015 60.0405 16.2063 59.0467 16.2063H58.862L58.7163 18.3284C58.5303 21.2187 58.4202 23.5254 58.4202 25.2441C58.4569 27.1462 58.6784 28.3155 59.1948 28.7919H51.4959C52.5998 27.8038 53.0037 24.5112 53.6315 15.877L53.7428 14.0853C54.0377 9.84234 54.2592 6.54864 54.2213 4.24538C54.1834 2.23266 53.9643 0.988109 53.41 0.549345H63.9077C67.3331 0.549345 72.0484 1.1363 72.0484 6.65918C72.0484 11.194 68.9901 13.6831 65.1976 14.8523C65.5659 15.1829 66.228 16.024 66.6343 16.5369L72.4167 24.1466C76.0269 28.866 76.3206 29.0848 77.6117 29.7436C75.9902 29.9259 73.8179 30 72.4167 30ZM36.5423 7.17324L31.9349 17.0121H39.4123L36.5423 7.17324ZM45.4908 29.0472C43.0615 29.0472 42.8768 28.9754 40.9248 22.3173L40.2248 19.8659C39.0439 20.4141 36.9451 20.6705 33.5931 20.6705H30.2044L29.6158 21.9139C29.0259 23.2325 27.5892 25.9405 27.6259 27.5132C27.6259 27.8791 27.6626 28.2449 27.8107 28.7931H20.9966C22.9485 26.8544 25.4169 22.355 28.8423 15.0747L30.8322 10.8681C32.6361 7.06385 34.5525 2.74672 34.5525 2.12445C34.5525 1.57396 34.4068 1.06341 34.1841 0.550531H40.3741C40.3741 0.550531 41.992 6.66036 43.4299 11.7445L44.6451 16.2087C46.7452 23.709 48.0705 27.3662 49.8389 28.7931C48.2553 28.9754 46.2655 29.0472 45.4908 29.0472ZM10.4231 3.95248C9.86993 3.95248 9.13441 3.95248 8.43442 4.02659C8.13949 6.00163 7.95471 7.90373 7.809 9.98824C7.809 9.98824 7.69766 11.7798 7.69766 11.7068H8.43442C12.0445 11.7068 15.361 10.4635 15.361 7.17324C15.361 5.26877 13.7762 3.95248 10.4231 3.95248ZM9.50396 15.1464H7.47856L7.18363 19.3166C7.03677 21.1469 6.96214 22.682 6.92542 24.5113C6.92542 24.7688 7.73557 25.317 9.64963 25.317C13.6282 25.317 16.2446 23.3419 16.2446 20.0847C16.2446 16.4628 13.2598 15.1464 9.50396 15.1464ZM9.94575 28.7919H0C1.25313 27.6932 1.58477 23.4137 2.13675 15.877L2.2469 14.1218C2.54297 9.84119 2.76331 6.54864 2.7266 4.24538C2.68988 2.26912 2.46839 0.988109 1.91526 0.549345H13.0395C15.6915 0.549345 20.9966 0.69639 20.9966 6.18281C20.9966 9.84115 17.57 12.1091 14.4395 12.9161C18.8599 13.3549 22.1751 15.4758 22.1751 20.0118C22.1739 24.9135 17.5333 28.7919 9.94575 28.7919Z" fill="#00AEEF"/>
</svg>
