<svg width="188" height="35" viewBox="0 0 188 35" fill="none" xmlns="http://www.w3.org/2000/svg">
<g clip-path="url(#clip0_144_2908)">
<mask id="mask0_144_2908" style="mask-type:luminance" maskUnits="userSpaceOnUse" x="1" y="1" width="189" height="40">
<path d="M1.25391 40.6343H189.268V1.24575H1.25391V40.6343Z" fill="white"/>
</mask>
<g mask="url(#mask0_144_2908)">
<path d="M25.2449 18.7383C25.223 18.7383 25.2449 29.9783 25.2449 29.9783C25.2449 31.3922 24.0233 32.6311 22.4238 32.6311H20.8911V33.2036H33.8637V32.6311H32.331C30.7533 32.6311 29.5099 31.372 29.5099 29.9783V18.5619V4.93654C29.5099 3.56605 30.7315 2.28664 32.331 2.28664H33.8637V1.71126H20.8911V2.28664H22.4238C24.0452 2.28664 25.2449 3.56605 25.2449 4.93654V17.1481H9.87424V4.93654C9.87424 3.56605 11.1176 2.28664 12.6953 2.28664H14.2266V1.71126H1.25391V2.28664H2.78806C4.38619 2.28664 5.60915 3.56605 5.60915 4.93654V18.5619V29.9783C5.60915 31.372 4.38619 32.6311 2.78806 32.6311H1.25391V33.2036H14.2266V32.6311H12.6953C11.1176 32.6311 9.87424 31.372 9.87424 29.9783C9.87424 29.9783 9.8946 18.7383 9.87424 18.7383H25.2449Z" fill="white"/>
<path d="M56.096 24.9633C56.2079 26.8137 55.0533 29.6227 53.4523 31.0568C51.9138 32.4388 49.7209 33.6416 46.7893 33.6416C43.4578 33.6416 40.5916 31.875 39.5475 31.4774C38.9149 31.236 38.086 31.262 37.5916 31.5656C37.0143 31.9198 36.6595 32.4923 36.5257 33.5534H36.0371V22.643H36.5257C36.9707 25.9998 38.547 27.9717 39.5257 29.0921C41.1253 30.9252 44.1456 31.9632 47.0554 31.4991C49.3675 31.1305 51.8978 28.6367 51.62 25.5473C51.5211 24.4327 51.2754 22.8107 48.9444 21.2971C47.4815 20.3458 45.4034 18.997 43.4345 17.6974C40.9493 16.0594 38.6939 14.2856 38.0599 13.5671C37.2281 12.626 36.1927 11.2714 36.1927 9.10579C36.1927 7.251 36.9038 5.13166 38.4147 3.7178C39.9256 2.30539 41.9687 1.24571 44.9003 1.24571C47.8334 1.24571 50.0553 2.79113 50.8101 3.14387C51.5648 3.49661 52.3995 3.41421 52.875 3.14387C53.3418 2.87787 53.653 2.48031 53.7867 1.42064H54.2754V11.7571H53.7867C53.3418 8.39886 51.876 5.8834 50.8537 4.95529C49.8329 4.02717 47.8334 2.74631 44.8567 3.32024C42.0007 3.87104 40.6105 5.15479 40.3473 7.42737C40.1466 9.15928 41.0918 10.2247 41.6357 10.8724C42.7467 12.1966 49.795 16.1679 52.987 18.9117C54.6316 20.3241 55.92 22.004 56.096 24.9633Z" fill="white"/>
<path d="M66.4215 31.4225C68.6159 32.0976 72.7937 32.6166 75.705 30.5421C79.1979 28.057 79.9337 21.9837 75.0041 18.8192C73.0191 17.5441 68.0662 17.6323 66.4215 18.0168V31.4225ZM66.4215 16.2416C67.976 16.6377 72.5538 16.7447 74.3293 15.6228C77.1126 13.8663 78.0782 11.0473 77.5649 8.55497C77.2566 7.05726 76.4597 5.6752 75.084 4.71384C72.3749 2.81423 68.4661 3.12216 66.4215 3.7409V16.2416ZM76.64 17.1234C82.2866 19.0505 83.8963 23.0131 82.8479 27.0956C81.6176 31.8952 76.1732 32.871 74.4079 33.1038C73.611 33.2064 71.5766 33.1978 69.5655 33.1978C65.9766 33.2021 61.4366 33.1905 57.791 33.1905V32.6166H59.6582C60.8448 32.6166 62.2001 31.622 62.2001 30.1214V4.97839C62.2001 3.47635 60.8448 2.46149 59.6684 2.46149H57.8026V1.88612C61.0222 1.88612 65.7119 1.88467 69.0652 1.88612C71.7743 1.88612 73.246 2.14489 74.197 2.32849C75.7951 2.63642 80.4616 4.00691 81.5711 8.33378C82.4305 11.6848 80.7495 15.9091 76.64 17.1234Z" fill="white"/>
<path d="M112.542 2.26249L112.998 12.9286L112.354 12.9517C112.043 10.2556 111.02 8.35741 109.732 7.11992C109.361 6.76429 108.657 6.04435 107.642 5.40826C105.951 4.34859 103.436 3.4118 100.447 3.94091C95.9596 4.73602 93.6489 7.68373 92.4943 10.5216C91.0721 14.01 90.172 19.9762 92.5845 25.01C94.5403 29.0955 98.3008 30.797 101.202 31.2365C103.674 31.6109 109.155 31.4953 113.331 25.8933L113.997 26.3342C110.753 30.8838 106.444 33.7982 101.513 33.7534C95.2049 33.6985 91.2408 30.2419 89.4289 28.189C87.5181 26.0249 86.0523 21.9177 86.0334 18.3397C86.0189 15.1593 86.7242 11.6203 87.873 9.55009C89.8506 5.9952 93.9819 2.46199 99.4235 1.93143C103.5 1.53532 106.178 2.32899 108.467 3.63154C109.61 4.28353 110.253 4.35871 110.875 4.09559C111.496 3.82959 111.998 3.30048 111.998 2.26249H112.542Z" fill="white"/>
<path d="M170.92 33.2007H139.271V1.74443H170.92V33.2007Z" fill="white"/>
<path d="M123.441 17.4724L139.267 33.2041V1.73923L123.441 17.4724Z" fill="#E71D1C"/>
<path d="M139.27 33.2031H170.92L155.094 17.4714L139.27 33.2031Z" fill="#E71D1C"/>
<path d="M155.096 17.4717L170.922 1.73852H139.271L155.096 17.4717Z" fill="#E71D1C"/>
<path d="M170.922 1.73923V33.2041L186.748 17.4724L170.922 1.73923Z" fill="#E71D1C"/>
</g>
</g>
<defs>
<clipPath id="clip0_144_2908">
<rect width="188" height="35" fill="white"/>
</clipPath>
</defs>
</svg>
