<svg width="46" height="46" viewBox="0 0 46 46" fill="none" xmlns="http://www.w3.org/2000/svg">
<rect width="46" height="46" rx="13" fill="#0328EE"/>
<g clip-path="url(#clip0_108_3191)">
<path opacity="0.4" d="M23.211 41.4324C21.8105 41.4324 20.4118 40.9006 19.3427 39.8389L18.0132 38.5094C17.4978 37.9958 16.8075 37.7116 16.0754 37.7098H14.205C11.1817 37.7098 8.72126 35.2493 8.72126 32.2261V30.3539C8.71944 29.6235 8.43532 28.9333 7.91991 28.4142L6.61227 27.1084C4.47049 24.9794 4.46139 21.499 6.59223 19.3554L7.92174 18.0241C8.43532 17.5087 8.71944 16.8184 8.72126 16.0863V14.2178C8.72126 11.1927 11.1817 8.7322 14.205 8.7322H16.0772C16.8075 8.7322 17.496 8.44808 18.015 7.92903L19.3245 6.62321C21.4535 4.48143 24.9321 4.47051 27.0775 6.60317L28.407 7.93268C28.9242 8.44808 29.6126 8.7322 30.343 8.7322H32.2152C35.2384 8.7322 37.6989 11.1927 37.6989 14.2178V16.0881C37.7008 16.8184 37.9849 17.5087 38.5003 18.0277L39.8079 19.3354C40.8442 20.3662 41.4179 21.7394 41.4234 23.2055C41.427 24.6625 40.8661 26.0339 39.8443 27.0702C39.8261 27.0884 39.8097 27.1084 39.7915 27.1248L38.4985 28.4179C37.9849 28.9333 37.7008 29.6235 37.6989 30.3557V32.2261C37.6989 35.2493 35.2384 37.7098 32.2152 37.7098H30.343C29.6126 37.7116 28.9224 37.9958 28.4052 38.5112L27.0957 39.8188C26.0285 40.8933 24.6188 41.4324 23.211 41.4324Z" fill="white"/>
<path d="M13.937 28.43C13.8782 28.43 13.8292 28.43 13.7901 28.43C13.7607 28.4398 13.7215 28.4447 13.6725 28.4447C13.4374 28.4447 13.2513 28.386 13.1142 28.2684C12.9868 28.1607 12.9232 28.0235 12.9232 27.857C12.9232 27.6709 13.0309 27.4848 13.2464 27.2987C13.8635 27.0146 14.3925 26.6571 14.8333 26.2261C15.2741 25.7951 15.6218 25.276 15.8765 24.6686C15.661 24.747 15.4455 24.8058 15.23 24.845C15.0145 24.8743 14.7941 24.889 14.5688 24.889C14.0496 24.889 13.599 24.8058 13.217 24.6393C12.8448 24.4727 12.5314 24.2621 12.2767 24.0075C12.022 23.743 11.831 23.4491 11.7037 23.1259C11.5861 22.8026 11.5273 22.4843 11.5273 22.1708C11.5273 21.8084 11.6008 21.446 11.7477 21.0836C11.8947 20.7113 12.1053 20.3832 12.3795 20.0991C12.6636 19.8053 13.0113 19.5702 13.4227 19.3939C13.8439 19.2078 14.3288 19.1147 14.8773 19.1147C15.3867 19.1147 15.8275 19.2127 16.1997 19.4086C16.5719 19.6045 16.8756 19.8641 17.1107 20.1873C17.3458 20.5007 17.5172 20.8632 17.6249 21.2746C17.7327 21.686 17.7768 22.1072 17.7572 22.5382C17.7572 23.1749 17.669 23.7871 17.4927 24.3748C17.3262 24.9527 17.0764 25.4964 16.7434 26.0057C16.4201 26.5053 16.0185 26.9607 15.5385 27.3722C15.0684 27.7836 14.5345 28.1362 13.937 28.43ZM14.5541 23.6108C14.8577 23.6108 15.1614 23.5471 15.4651 23.4197C15.7785 23.2924 16.0626 23.1308 16.3173 22.9349C16.2977 22.9349 16.2928 22.8908 16.3026 22.8026C16.3222 22.7047 16.3319 22.6116 16.3319 22.5235C16.3319 22.2492 16.3075 21.9847 16.2585 21.7301C16.2095 21.4656 16.1262 21.2354 16.0087 21.0395C15.8912 20.8338 15.7344 20.6722 15.5385 20.5546C15.3426 20.4273 15.0977 20.3636 14.8039 20.3636C14.559 20.3636 14.3239 20.4126 14.0986 20.5105C13.8831 20.5987 13.6872 20.726 13.5109 20.8926C13.3444 21.0493 13.2121 21.2403 13.1142 21.4656C13.0162 21.6909 12.9672 21.9309 12.9672 22.1855C12.9672 22.4108 13.0113 22.6116 13.0995 22.788C13.1974 22.9545 13.3199 23.1014 13.4668 23.2287C13.6137 23.3561 13.7803 23.454 13.9664 23.5226C14.1623 23.5814 14.3582 23.6108 14.5541 23.6108Z" fill="white"/>
<path d="M21.0444 28.43C20.9857 28.43 20.9367 28.43 20.8975 28.43C20.8681 28.4398 20.8289 28.4447 20.78 28.4447C20.5449 28.4447 20.3588 28.386 20.2216 28.2684C20.0943 28.1607 20.0306 28.0235 20.0306 27.857C20.0306 27.6709 20.1384 27.4848 20.3539 27.2987C20.971 27.0146 21.4999 26.6571 21.9407 26.2261C22.3815 25.7951 22.7292 25.276 22.9839 24.6686C22.7684 24.747 22.5529 24.8058 22.3374 24.845C22.1219 24.8743 21.9015 24.889 21.6762 24.889C21.1571 24.889 20.7065 24.8058 20.3245 24.6393C19.9523 24.4727 19.6388 24.2621 19.3841 24.0075C19.1295 23.743 18.9384 23.4491 18.8111 23.1259C18.6936 22.8026 18.6348 22.4843 18.6348 22.1708C18.6348 21.8084 18.7083 21.446 18.8552 21.0836C19.0021 20.7113 19.2127 20.3832 19.487 20.0991C19.771 19.8053 20.1188 19.5702 20.5302 19.3939C20.9514 19.2078 21.4362 19.1147 21.9848 19.1147C22.4941 19.1147 22.9349 19.2127 23.3072 19.4086C23.6794 19.6045 23.983 19.8641 24.2181 20.1873C24.4532 20.5007 24.6246 20.8632 24.7324 21.2746C24.8401 21.686 24.8842 22.1072 24.8646 22.5382C24.8646 23.1749 24.7764 23.7871 24.6001 24.3748C24.4336 24.9527 24.1838 25.4964 23.8508 26.0057C23.5275 26.5053 23.1259 26.9607 22.646 27.3722C22.1758 27.7836 21.642 28.1362 21.0444 28.43ZM21.6615 23.6108C21.9652 23.6108 22.2688 23.5471 22.5725 23.4197C22.886 23.2924 23.17 23.1308 23.4247 22.9349C23.4051 22.9349 23.4002 22.8908 23.41 22.8026C23.4296 22.7047 23.4394 22.6116 23.4394 22.5235C23.4394 22.2492 23.4149 21.9847 23.3659 21.7301C23.3169 21.4656 23.2337 21.2354 23.1161 21.0395C22.9986 20.8338 22.8419 20.6722 22.646 20.5546C22.4501 20.4273 22.2052 20.3636 21.9113 20.3636C21.6664 20.3636 21.4314 20.4126 21.2061 20.5105C20.9906 20.5987 20.7947 20.726 20.6183 20.8926C20.4518 21.0493 20.3196 21.2403 20.2216 21.4656C20.1237 21.6909 20.0747 21.9309 20.0747 22.1855C20.0747 22.4108 20.1188 22.6116 20.2069 22.788C20.3049 22.9545 20.4273 23.1014 20.5743 23.2287C20.7212 23.3561 20.8877 23.454 21.0738 23.5226C21.2697 23.5814 21.4656 23.6108 21.6615 23.6108Z" fill="white"/>
<path d="M32.8398 18.1447C32.9867 18.0075 33.1728 17.939 33.3981 17.939C33.5842 17.939 33.741 17.9977 33.8683 18.1153C34.0054 18.2328 34.074 18.3798 34.074 18.5561C34.074 18.6051 34.0691 18.654 34.0593 18.703C34.0495 18.7422 34.0348 18.7863 34.0152 18.8352L30.8562 23.3754L27.4769 28.2093C27.3887 28.3269 27.2859 28.4053 27.1683 28.4444C27.0508 28.4836 26.943 28.5032 26.8451 28.5032C26.659 28.5032 26.4973 28.4493 26.3602 28.3416C26.2329 28.2338 26.1692 28.0869 26.1692 27.9008C26.1692 27.8322 26.179 27.7637 26.1986 27.6951C26.2182 27.6167 26.2525 27.5384 26.3014 27.46C26.8892 26.6372 27.4475 25.8438 27.9764 25.0797C28.5054 24.3157 29.0343 23.5566 29.5633 22.8023C30.0824 22.0579 30.6114 21.3037 31.1501 20.5396C31.6888 19.7756 32.2472 18.9822 32.8251 18.1594L32.8398 18.1447ZM25.4492 20.2899C25.4688 19.9274 25.5472 19.614 25.6843 19.3495C25.8215 19.085 25.9929 18.8646 26.1986 18.6883C26.4043 18.512 26.6394 18.3847 26.9038 18.3063C27.1683 18.2181 27.4328 18.1741 27.6973 18.1741C27.9715 18.1741 28.2409 18.2181 28.5054 18.3063C28.7699 18.3945 29.0049 18.5267 29.2106 18.703C29.4261 18.8793 29.5976 19.0997 29.7249 19.3642C29.8522 19.6189 29.9159 19.9127 29.9159 20.2458C29.9159 20.5788 29.8473 20.8825 29.7102 21.1567C29.5829 21.431 29.4114 21.671 29.1959 21.8767C28.9805 22.0726 28.7356 22.2244 28.4613 22.3322C28.187 22.4399 27.903 22.4938 27.6091 22.4938C27.3544 22.4938 27.0998 22.4448 26.8451 22.3469C26.6002 22.2489 26.3749 22.1069 26.1692 21.9208C25.9733 21.7347 25.8068 21.5045 25.6696 21.2302C25.5423 20.9559 25.4688 20.6425 25.4492 20.2899ZM30.5036 26.2405C30.5232 25.8879 30.5967 25.5842 30.724 25.3295C30.8611 25.0651 31.0326 24.8496 31.2383 24.683C31.444 24.5067 31.6742 24.3794 31.9288 24.301C32.1835 24.2129 32.4431 24.1688 32.7076 24.1688C32.972 24.1688 33.2316 24.2129 33.4863 24.301C33.7508 24.3892 33.9858 24.5214 34.1915 24.6977C34.407 24.8643 34.5785 25.0749 34.7058 25.3295C34.8331 25.5744 34.8968 25.8634 34.8968 26.1964C34.8968 26.5392 34.8331 26.8478 34.7058 27.1221C34.5883 27.3963 34.4266 27.6265 34.2209 27.8126C34.0152 27.9987 33.7752 28.1408 33.501 28.2387C33.2365 28.3367 32.9622 28.3857 32.6782 28.3857C32.4333 28.3857 32.1884 28.3416 31.9435 28.2534C31.6986 28.1751 31.4734 28.0477 31.2677 27.8714C31.062 27.6951 30.8905 27.4747 30.7534 27.2102C30.6163 26.936 30.533 26.6127 30.5036 26.2405ZM27.6385 19.4377C27.521 19.4377 27.4181 19.467 27.3299 19.5258C27.2516 19.5748 27.183 19.6434 27.1242 19.7315C27.0655 19.8099 27.0165 19.9029 26.9773 20.0107C26.9479 20.1086 26.9234 20.2066 26.9038 20.3045C26.9332 20.6082 27.0263 20.8286 27.183 20.9657C27.3397 21.1029 27.5161 21.1714 27.712 21.1714C27.8981 21.1714 28.0695 21.098 28.2262 20.951C28.3927 20.8041 28.476 20.5837 28.476 20.2899C28.476 20.0548 28.3878 19.854 28.2115 19.6874C28.045 19.5209 27.854 19.4377 27.6385 19.4377ZM32.6929 25.4618C32.4382 25.4618 32.257 25.545 32.1492 25.7115C32.0513 25.8781 31.9876 26.0544 31.9582 26.2405C31.9876 26.5246 32.0758 26.7401 32.2227 26.887C32.3696 27.0241 32.541 27.0927 32.7369 27.0927C32.9035 27.0927 33.0651 27.0241 33.2218 26.887C33.3785 26.7401 33.4569 26.5246 33.4569 26.2405C33.4569 25.9956 33.3785 25.8046 33.2218 25.6675C33.0651 25.5303 32.8888 25.4618 32.6929 25.4618Z" fill="white"/>
</g>
<defs>
<clipPath id="clip0_108_3191">
<rect width="37" height="37" fill="white" transform="translate(5 5)"/>
</clipPath>
</defs>
</svg>
