<svg width="147" height="30" viewBox="0 0 147 30" fill="none" xmlns="http://www.w3.org/2000/svg">
<g clip-path="url(#clip0_144_3655)">
<path d="M35.0759 21.3392C34.977 21.0758 26.2078 3.75414 26.0759 3.4907C25.6144 2.37105 24.7902 1.41605 23.7023 0.757437C20.966 -0.823244 17.4715 0.0988199 15.8891 2.83208C14.8012 4.70914 14.8671 6.9155 15.922 8.66084C16.0209 8.89136 24.3946 25.4885 24.5594 25.7519C24.6583 26.0154 24.7902 26.2459 24.922 26.5094C25.3836 27.629 26.2078 28.584 27.2957 29.2426C30.0319 30.8233 33.5264 29.9342 35.1089 27.2009C36.2297 25.3238 36.1308 23.0846 35.0759 21.3392Z" fill="white" fill-opacity="0.4"/>
<path d="M24.956 9.61581C25.9121 8.59495 26.5055 7.21185 26.5055 5.69704C26.5055 2.56861 23.967 0 20.8022 0C18.8571 0 17.1429 0.954995 16.1209 2.43688C15.9231 2.63447 1.71429 20.1537 1.54945 20.3842C0.593406 21.4051 0 22.7881 0 24.303C0 27.4643 2.57143 30 5.7033 30C7.64835 30 9.36264 29.045 10.3846 27.5631C10.5824 27.3326 24.8242 9.84632 24.956 9.61581Z" fill="white"/>
<path d="M49.4499 9.61581C50.406 8.59495 50.9994 7.21185 50.9994 5.69704C50.9994 2.53567 48.428 0 45.2961 0C43.351 0 41.6368 0.954995 40.6148 2.43688C40.417 2.63447 26.1752 20.1537 26.0104 20.3842C25.0543 21.4051 24.4609 22.7881 24.4609 24.303C24.4609 27.4643 27.0324 30 30.1642 30C32.1093 30 33.8236 29.045 34.8456 27.5631C35.0763 27.3326 49.2851 9.84632 49.4499 9.61581Z" fill="white"/>
</g>
<path d="M67 14.1763C67 12.5928 67.3426 11.1844 68.0277 9.9511C68.7129 8.7026 69.6645 7.7357 70.8826 7.0505C72.1159 6.3502 73.5091 6 75.0621 6C76.9654 6 78.5946 6.5024 79.9497 7.5073C81.3048 8.5122 82.2107 9.8826 82.6675 11.6183H78.3738C78.054 10.9484 77.5973 10.4383 77.0034 10.0881C76.4249 9.7379 75.7625 9.5628 75.0164 9.5628C73.8136 9.5628 72.8391 9.9815 72.0931 10.819C71.347 11.6564 70.974 12.7755 70.974 14.1763C70.974 15.5771 71.347 16.6962 72.0931 17.5336C72.8391 18.3711 73.8136 18.7898 75.0164 18.7898C75.7625 18.7898 76.4249 18.6147 77.0034 18.2645C77.5973 17.9143 78.054 17.4042 78.3738 16.7343H82.6675C82.2107 18.47 81.3048 19.8404 79.9497 20.8453C78.5946 21.835 76.9654 22.3298 75.0621 22.3298C73.5091 22.3298 72.1159 21.9872 70.8826 21.3021C69.6645 20.6017 68.7129 19.6348 68.0277 18.4015C67.3426 17.1682 67 15.7598 67 14.1763ZM88.9646 11.5955C89.4214 10.8951 89.9924 10.347 90.6776 9.9511C91.3627 9.54 92.124 9.3344 92.9615 9.3344V13.4683H91.888C90.9136 13.4683 90.1827 13.6815 89.6955 14.1078C89.2083 14.5189 88.9646 15.2497 88.9646 16.3003V22.2156H85.0592V9.4715H88.9646V11.5955ZM107.846 9.4715L99.8528 28.268H95.6504L98.5738 21.7817L93.3893 9.4715H97.7516L100.698 17.4423L103.621 9.4715H107.846ZM113.164 11.2758C113.544 10.6819 114.07 10.2023 114.74 9.8369C115.41 9.4715 116.194 9.2888 117.092 9.2888C118.143 9.2888 119.094 9.5552 119.947 10.0881C120.8 10.621 121.47 11.3823 121.957 12.372C122.459 13.3617 122.71 14.5113 122.71 15.8207C122.71 17.1301 122.459 18.2873 121.957 19.2922C121.47 20.2819 120.8 21.0508 119.947 21.599C119.094 22.1319 118.143 22.3983 117.092 22.3983C116.209 22.3983 115.425 22.2156 114.74 21.8502C114.07 21.4848 113.544 21.0128 113.164 20.4342V28.2908H109.259V9.4715H113.164V11.2758ZM118.736 15.8207C118.736 14.8462 118.462 14.0849 117.914 13.5368C117.381 12.9735 116.719 12.6918 115.927 12.6918C115.151 12.6918 114.488 12.9735 113.94 13.5368C113.407 14.1002 113.141 14.8691 113.141 15.8436C113.141 16.818 113.407 17.5869 113.94 18.1503C114.488 18.7136 115.151 18.9953 115.927 18.9953C116.704 18.9953 117.366 18.7136 117.914 18.1503C118.462 17.5717 118.736 16.7952 118.736 15.8207ZM131.862 18.904V22.2156H129.875C128.459 22.2156 127.355 21.873 126.564 21.1879C125.772 20.4875 125.376 19.3531 125.376 17.7849V12.7146H123.823V9.4715H125.376V6.3654H129.281V9.4715H131.839V12.7146H129.281V17.8305C129.281 18.2112 129.373 18.4853 129.556 18.6527C129.738 18.8202 130.043 18.904 130.469 18.904H131.862ZM139.839 22.3983C138.59 22.3983 137.464 22.1319 136.459 21.599C135.469 21.0661 134.685 20.3048 134.106 19.3151C133.543 18.3254 133.261 17.1682 133.261 15.8436C133.261 14.5341 133.55 13.3846 134.129 12.3949C134.708 11.39 135.499 10.621 136.504 10.0881C137.509 9.5552 138.636 9.2888 139.884 9.2888C141.133 9.2888 142.26 9.5552 143.265 10.0881C144.27 10.621 145.061 11.39 145.64 12.3949C146.218 13.3846 146.508 14.5341 146.508 15.8436C146.508 17.153 146.211 18.3102 145.617 19.3151C145.038 20.3048 144.239 21.0661 143.219 21.599C142.214 22.1319 141.087 22.3983 139.839 22.3983ZM139.839 19.0182C140.585 19.0182 141.217 18.7441 141.734 18.196C142.267 17.6478 142.534 16.8637 142.534 15.8436C142.534 14.8234 142.275 14.0393 141.757 13.4911C141.255 12.943 140.631 12.6689 139.884 12.6689C139.123 12.6689 138.491 12.943 137.989 13.4911C137.486 14.024 137.235 14.8082 137.235 15.8436C137.235 16.8637 137.479 17.6478 137.966 18.196C138.468 18.7441 139.093 19.0182 139.839 19.0182Z" fill="white"/>
<defs>
<clipPath id="clip0_144_3655">
<rect width="51" height="30" fill="white"/>
</clipPath>
</defs>
</svg>
