<svg width="172" height="42" viewBox="0 0 172 42" fill="none" xmlns="http://www.w3.org/2000/svg">
<path d="M51.3359 29V11.5455H58.2223C59.5462 11.5455 60.674 11.7983 61.6058 12.304C62.5376 12.804 63.2479 13.5 63.7365 14.3921C64.2308 15.2785 64.478 16.3012 64.478 17.4603C64.478 18.6194 64.228 19.6421 63.728 20.5285C63.228 21.4148 62.5036 22.1052 61.5547 22.5995C60.6115 23.0938 59.4695 23.341 58.1286 23.341H53.7393V20.3836H57.532C58.2422 20.3836 58.8274 20.2614 59.2876 20.0171C59.7536 19.7671 60.1001 19.4233 60.3274 18.9858C60.5604 18.5427 60.6768 18.0341 60.6768 17.4603C60.6768 16.8807 60.5604 16.375 60.3274 15.9432C60.1001 15.5057 59.7536 15.1677 59.2876 14.929C58.8217 14.6847 58.2308 14.5625 57.5149 14.5625H55.0263V29H51.3359Z" fill="white"/>
<path d="M66.8068 29V15.9091H70.3267V18.1932H70.4631C70.7017 17.3807 71.1023 16.7671 71.6648 16.3523C72.2273 15.9319 72.875 15.7216 73.608 15.7216C73.7898 15.7216 73.9858 15.733 74.196 15.7557C74.4062 15.7785 74.5909 15.8097 74.75 15.8495V19.0711C74.5795 19.0199 74.3438 18.9745 74.0426 18.9347C73.7415 18.8949 73.4659 18.875 73.2159 18.875C72.6818 18.875 72.2045 18.9915 71.7841 19.2245C71.3693 19.4517 71.0398 19.7699 70.7955 20.179C70.5568 20.5881 70.4375 21.0597 70.4375 21.5938V29H66.8068Z" fill="white"/>
<path d="M81.9325 29.2557C80.6087 29.2557 79.4638 28.9745 78.4979 28.412C77.5376 27.8438 76.7962 27.054 76.2734 26.0427C75.7507 25.0256 75.4893 23.8466 75.4893 22.5057C75.4893 21.1535 75.7507 19.9716 76.2734 18.9603C76.7962 17.9432 77.5376 17.1535 78.4979 16.591C79.4638 16.0228 80.6087 15.7387 81.9325 15.7387C83.2564 15.7387 84.3984 16.0228 85.3587 16.591C86.3246 17.1535 87.0689 17.9432 87.5916 18.9603C88.1143 19.9716 88.3757 21.1535 88.3757 22.5057C88.3757 23.8466 88.1143 25.0256 87.5916 26.0427C87.0689 27.054 86.3246 27.8438 85.3587 28.412C84.3984 28.9745 83.2564 29.2557 81.9325 29.2557ZM81.9496 26.4432C82.5518 26.4432 83.0547 26.2728 83.4581 25.9319C83.8615 25.5853 84.1655 25.1137 84.37 24.5171C84.5803 23.9205 84.6854 23.2415 84.6854 22.4802C84.6854 21.7188 84.5803 21.0398 84.37 20.4432C84.1655 19.8466 83.8615 19.375 83.4581 19.0285C83.0547 18.6819 82.5518 18.5086 81.9496 18.5086C81.3416 18.5086 80.8303 18.6819 80.4155 19.0285C80.0064 19.375 79.6967 19.8466 79.4865 20.4432C79.282 21.0398 79.1797 21.7188 79.1797 22.4802C79.1797 23.2415 79.282 23.9205 79.4865 24.5171C79.6967 25.1137 80.0064 25.5853 80.4155 25.9319C80.8303 26.2728 81.3416 26.4432 81.9496 26.4432Z" fill="white"/>
<path d="M97.7763 15.9091V18.6364H89.6967V15.9091H97.7763ZM91.5462 29V14.9631C91.5462 14.0142 91.7308 13.2273 92.1001 12.6023C92.4751 11.9773 92.9865 11.5086 93.6342 11.1961C94.282 10.8836 95.0178 10.7273 95.8416 10.7273C96.3984 10.7273 96.907 10.7699 97.3672 10.8552C97.8331 10.9404 98.1797 11.0171 98.407 11.0853L97.7592 13.8125C97.6172 13.7671 97.4411 13.7245 97.2308 13.6847C97.0263 13.6449 96.8161 13.625 96.6001 13.625C96.0661 13.625 95.6939 13.75 95.4837 14C95.2734 14.2444 95.1683 14.5881 95.1683 15.0313V29H91.5462Z" fill="white"/>
<path d="M99.9943 29V15.9091H103.625V29H99.9943ZM101.818 14.2216C101.278 14.2216 100.815 14.0427 100.429 13.6847C100.048 13.3211 99.858 12.8864 99.858 12.3807C99.858 11.8807 100.048 11.4517 100.429 11.0938C100.815 10.7302 101.278 10.5483 101.818 10.5483C102.358 10.5483 102.818 10.7302 103.199 11.0938C103.585 11.4517 103.778 11.8807 103.778 12.3807C103.778 12.8864 103.585 13.3211 103.199 13.6847C102.818 14.0427 102.358 14.2216 101.818 14.2216Z" fill="white"/>
<path d="M113.496 15.9091V18.6364H105.613V15.9091H113.496ZM107.403 12.7728H111.033V24.9773C111.033 25.3125 111.085 25.5739 111.187 25.7614C111.289 25.9432 111.431 26.0711 111.613 26.1449C111.8 26.2188 112.016 26.2557 112.261 26.2557C112.431 26.2557 112.602 26.2415 112.772 26.2131C112.942 26.179 113.073 26.1535 113.164 26.1364L113.735 28.8381C113.553 28.8949 113.298 28.9603 112.968 29.0341C112.638 29.1137 112.238 29.162 111.766 29.179C110.891 29.2131 110.124 29.0966 109.465 28.8296C108.812 28.5625 108.303 28.1478 107.94 27.5853C107.576 27.0228 107.397 26.3125 107.403 25.4546V12.7728Z" fill="white"/>
<path d="M116.211 29V11.5455H119.901V18.7472H127.393V11.5455H131.075V29H127.393V21.7898H119.901V29H116.211Z" fill="white"/>
<path d="M142.444 23.4262V15.9091H146.075V29H142.589V26.6222H142.452C142.157 27.3892 141.665 28.0057 140.978 28.4716C140.296 28.9375 139.464 29.1705 138.481 29.1705C137.606 29.1705 136.836 28.9716 136.171 28.5739C135.506 28.1762 134.987 27.6108 134.612 26.8779C134.242 26.1449 134.055 25.2671 134.049 24.2444V15.9091H137.68V23.5966C137.685 24.3694 137.893 24.9802 138.302 25.429C138.711 25.8779 139.259 26.1023 139.947 26.1023C140.384 26.1023 140.793 26.0029 141.174 25.804C141.555 25.5995 141.862 25.2983 142.094 24.9006C142.333 24.5029 142.45 24.0114 142.444 23.4262Z" fill="white"/>
<path d="M152.609 21.4319V29H148.979V15.9091H152.439V18.2188H152.592C152.882 17.4574 153.368 16.8552 154.05 16.412C154.732 15.9631 155.558 15.7387 156.53 15.7387C157.439 15.7387 158.232 15.9375 158.908 16.3353C159.584 16.733 160.109 17.3012 160.484 18.0398C160.859 18.7728 161.047 19.6478 161.047 20.6648V29H157.416V21.3125C157.422 20.5114 157.217 19.8864 156.803 19.4375C156.388 18.983 155.817 18.7557 155.089 18.7557C154.601 18.7557 154.169 18.8608 153.794 19.0711C153.425 19.2813 153.135 19.5881 152.925 19.9915C152.72 20.3892 152.615 20.8694 152.609 21.4319Z" fill="white"/>
<path d="M170.871 15.9091V18.6364H162.988V15.9091H170.871ZM164.778 12.7728H168.408V24.9773C168.408 25.3125 168.46 25.5739 168.562 25.7614C168.664 25.9432 168.806 26.0711 168.988 26.1449C169.175 26.2188 169.391 26.2557 169.636 26.2557C169.806 26.2557 169.977 26.2415 170.147 26.2131C170.317 26.179 170.448 26.1535 170.539 26.1364L171.11 28.8381C170.928 28.8949 170.673 28.9603 170.343 29.0341C170.013 29.1137 169.613 29.162 169.141 29.179C168.266 29.2131 167.499 29.0966 166.84 28.8296C166.187 28.5625 165.678 28.1478 165.315 27.5853C164.951 27.0228 164.772 26.3125 164.778 25.4546V12.7728Z" fill="white"/>
<path d="M0 32.1819L2.98023e-06 13.394L9.39392 18.6129V27.0152L16.9091 31.2425L24.4242 27.0152V18.6129L33.8182 13.394V32.1819L16.9091 41.5758L0 32.1819Z" fill="url(#paint0_linear_150_2902)"/>
<path fill-rule="evenodd" clip-rule="evenodd" d="M4.69698 12.0034L0 9.39394L16.9091 0L33.8182 9.39394L29.1212 12.0034V25.8333L16.9091 32.8788L4.69697 25.8333L4.69698 12.0034ZM28.6124 12.2861L24.4242 14.6128V14.5606L16.9091 10.3333L9.39392 14.5606V14.6128L5.20581 12.2861V25.5443L16.9091 32.2962L28.6124 25.5443V12.2861Z" fill="url(#paint1_linear_150_2902)"/>
<path fill-rule="evenodd" clip-rule="evenodd" d="M4.69698 12.0034L0 9.39394L16.9091 0L33.8182 9.39394L29.1212 12.0034V25.8333L16.9091 32.8788L4.69697 25.8333L4.69698 12.0034ZM28.6124 12.2861L24.4242 14.6128V14.5606L16.9091 10.3333L9.39392 14.5606V14.6128L5.20581 12.2861V25.5443L16.9091 32.2962L28.6124 25.5443V12.2861Z" fill="url(#paint2_linear_150_2902)"/>
<defs>
<linearGradient id="paint0_linear_150_2902" x1="0" y1="41.5758" x2="34.1704" y2="41.4903" gradientUnits="userSpaceOnUse">
<stop stop-color="#0086FF"/>
<stop offset="1" stop-color="#2E9CFF"/>
</linearGradient>
<linearGradient id="paint1_linear_150_2902" x1="4.69697" y1="7.30638" x2="30.0606" y2="7.30639" gradientUnits="userSpaceOnUse">
<stop stop-color="#64C2DB"/>
<stop offset="0.307292" stop-color="#7476ED"/>
<stop offset="0.604167" stop-color="#C994DF"/>
<stop offset="1" stop-color="#E56F8C"/>
</linearGradient>
<linearGradient id="paint2_linear_150_2902" x1="0" y1="32.8788" x2="34.1704" y2="32.8055" gradientUnits="userSpaceOnUse">
<stop stop-color="#0086FF"/>
<stop offset="1" stop-color="#2E9CFF"/>
</linearGradient>
</defs>
</svg>
