<svg width="97" height="75" viewBox="0 0 97 75" fill="none" xmlns="http://www.w3.org/2000/svg">
<g clip-path="url(#clip0_144_2889)">
<path d="M17.5803 74.8359V69.8584C17.5803 67.9544 16.4153 66.7077 14.4155 66.7077C13.4156 66.7077 12.3284 67.0363 11.5809 68.1187C10.9984 67.2102 10.1635 66.7077 8.91125 66.7077C8.07638 66.7077 7.24151 66.959 6.58138 67.8675V66.872H4.83398V74.8359H6.58138V70.4383C6.58138 69.0272 7.32888 68.3604 8.49381 68.3604C9.65874 68.3604 10.2412 69.1046 10.2412 70.4383V74.8359H11.9886V70.4383C11.9886 69.0272 12.8235 68.3604 13.901 68.3604C15.066 68.3604 15.6484 69.1046 15.6484 70.4383V74.8359H17.5803ZM43.5 66.872H40.6653V64.4654H38.9179V66.872H37.3356V68.4474H38.9179V72.1007C38.9179 73.9274 39.6654 75.0002 41.6652 75.0002C42.4127 75.0002 43.2476 74.7489 43.8301 74.4203L43.3253 72.9222C42.8205 73.2508 42.238 73.3378 41.8206 73.3378C40.9857 73.3378 40.6556 72.8352 40.6556 72.0137V68.4474H43.4903V66.872H43.5ZM58.3335 66.698C57.3336 66.698 56.6637 67.2006 56.2463 67.8578V66.8623H54.4989V74.8262H56.2463V70.3417C56.2463 69.0176 56.8288 68.2637 57.916 68.2637C58.2461 68.2637 58.6635 68.3507 59.0033 68.428L59.5081 66.7657C59.1586 66.698 58.6635 66.698 58.3335 66.698ZM35.9182 67.5292C35.0834 66.9493 33.9184 66.698 32.6661 66.698C30.6663 66.698 29.3364 67.6935 29.3364 69.2689C29.3364 70.593 30.3363 71.3468 32.0837 71.5885L32.9186 71.6754C33.8311 71.8397 34.3359 72.091 34.3359 72.5066C34.3359 73.0865 33.666 73.5021 32.5011 73.5021C31.3362 73.5021 30.4139 73.0865 29.8315 72.6709L28.9966 73.995C29.9091 74.6619 31.1614 74.9905 32.4137 74.9905C34.7436 74.9905 36.0833 73.908 36.0833 72.4196C36.0833 71.0086 34.996 70.2644 33.336 70.0131L32.5011 69.9261C31.7536 69.8391 31.1712 69.6748 31.1712 69.1819C31.1712 68.602 31.7536 68.2734 32.6759 68.2734C33.6758 68.2734 34.6757 68.689 35.1805 68.9403L35.9182 67.5292ZM82.4087 66.698C81.4088 66.698 80.739 67.2006 80.3216 67.8578V66.8623H78.5742V74.8262H80.3216V70.3417C80.3216 69.0176 80.904 68.2637 81.9913 68.2637C82.3214 68.2637 82.7388 68.3507 83.0786 68.428L83.5834 66.785C83.2436 66.698 82.7485 66.698 82.4087 66.698ZM60.0809 70.8539C60.0809 73.2605 61.7506 75.0002 64.3329 75.0002C65.4978 75.0002 66.3327 74.7489 67.1675 74.0917L66.3327 72.6806C65.6628 73.1832 65.0027 73.4248 64.2455 73.4248C62.8282 73.4248 61.8283 72.4293 61.8283 70.8539C61.8283 69.3559 62.8282 68.3604 64.2455 68.283C64.993 68.283 65.6628 68.5343 66.3327 69.0273L67.1675 67.6162C66.3327 66.9493 65.4978 66.7077 64.3329 66.7077C61.7506 66.698 60.0809 68.4474 60.0809 70.8539ZM76.2443 70.8539V66.872H74.4969V67.8675C73.9144 67.1233 73.0796 66.7077 71.9923 66.7077C69.7401 66.7077 67.9927 68.4474 67.9927 70.8539C67.9927 73.2605 69.7401 75.0002 71.9923 75.0002C73.1572 75.0002 73.9921 74.5846 74.4969 73.8404V74.8359H76.2443V70.8539ZM69.8275 70.8539C69.8275 69.4428 70.74 68.283 72.2447 68.283C73.662 68.283 74.6619 69.3655 74.6619 70.8539C74.6619 72.265 73.662 73.4248 72.2447 73.4248C70.7497 73.3378 69.8275 72.2553 69.8275 70.8539ZM48.9169 66.698C46.5871 66.698 44.9174 68.3604 44.9174 70.8443C44.9174 73.3378 46.5871 74.9905 49.0043 74.9905C50.1692 74.9905 51.3342 74.6619 52.2564 73.9081L51.4216 72.6613C50.7517 73.1638 49.9168 73.4925 49.0917 73.4925C48.0044 73.4925 46.9269 72.9899 46.6745 71.5885H52.5865C52.5865 71.3372 52.5865 71.1729 52.5865 70.9216C52.6641 68.3604 51.1594 66.698 48.9169 66.698ZM48.9169 68.1961C50.0042 68.1961 50.7517 68.8629 50.9167 70.1001H46.7521C46.9171 69.0272 47.6646 68.1961 48.9169 68.1961ZM92.3301 70.8539V63.7212H90.5827V67.8675C90.0002 67.1233 89.1653 66.7077 88.0781 66.7077C85.8259 66.7077 84.0785 68.4474 84.0785 70.8539C84.0785 73.2605 85.8259 75.0002 88.0781 75.0002C89.243 75.0002 90.0779 74.5846 90.5827 73.8404V74.8359H92.3301V70.8539ZM85.9132 70.8539C85.9132 69.4428 86.8258 68.283 88.3305 68.283C89.7478 68.283 90.7477 69.3655 90.7477 70.8539C90.7477 72.265 89.7478 73.4248 88.3305 73.4248C86.8258 73.3378 85.9132 72.2553 85.9132 70.8539ZM27.4142 70.8539V66.872H25.6668V67.8675C25.0844 67.1233 24.2495 66.7077 23.1622 66.7077C20.91 66.7077 19.1626 68.4474 19.1626 70.8539C19.1626 73.2605 20.91 75.0002 23.1622 75.0002C24.3272 75.0002 25.162 74.5846 25.6668 73.8404V74.8359H27.4142V70.8539ZM20.9198 70.8539C20.9198 69.4428 21.8323 68.283 23.337 68.283C24.7543 68.283 25.7542 69.3655 25.7542 70.8539C25.7542 72.265 24.7543 73.4248 23.337 73.4248C21.8323 73.3378 20.9198 72.2553 20.9198 70.8539Z" fill="white"/>
<path d="M61.5857 6.38867H35.3359V53.341H61.5857V6.38867Z" fill="#FF5A00"/>
<path d="M37.0837 29.8647C37.0837 20.3254 41.5881 11.8589 48.5 6.38853C43.4131 2.40657 36.9963 0 29.997 0C13.4161 0 0 13.357 0 29.8647C0 46.3724 13.4161 59.7294 29.997 59.7294C36.9963 59.7294 43.4131 57.3228 48.5 53.3409C41.5784 47.9478 37.0837 39.404 37.0837 29.8647Z" fill="#EB001B"/>
<path d="M97 29.8647C97 46.3724 83.5839 59.7294 67.003 59.7294C60.0037 59.7294 53.5869 57.3228 48.5 53.3409C55.4993 47.8608 59.9163 39.404 59.9163 29.8647C59.9163 20.3254 55.4119 11.8589 48.5 6.38853C53.5772 2.40657 59.994 0 66.9933 0C83.5839 0 97 13.4439 97 29.8647Z" fill="#F79E1B"/>
</g>
<defs>
<clipPath id="clip0_144_2889">
<rect width="97" height="75" fill="white"/>
</clipPath>
</defs>
</svg>
