<svg width="159" height="32" viewBox="0 0 159 32" fill="none" xmlns="http://www.w3.org/2000/svg">
<g clip-path="url(#clip0_144_2937)">
<path d="M5.20943 21.1032C5.20943 22.9428 5.61364 24.3552 6.14196 25.2096C6.83465 26.3288 7.86782 26.8029 8.92111 26.8029C10.2797 26.8029 11.5225 26.4662 13.9175 23.1573C15.8363 20.5051 18.0972 16.7824 19.6184 14.4486L22.1946 10.4947C23.9842 7.74869 26.0555 4.69613 28.4305 2.62702C30.3693 0.93822 32.4608 0 34.5657 0C38.0996 0 41.4658 2.04565 44.042 5.8823C46.8614 10.0842 48.23 15.3768 48.23 20.8385C48.23 24.0854 47.5893 26.4712 46.4991 28.356C45.4458 30.1788 43.3929 32 39.9395 32V26.8029C42.8965 26.8029 43.6344 24.0888 43.6344 20.9826C43.6344 16.5562 42.6013 11.644 40.3253 8.13403C38.7101 5.6444 36.617 4.12314 34.3141 4.12314C31.8235 4.12314 29.8192 5.99958 27.5667 9.34534C26.3692 11.1229 25.1398 13.2892 23.7594 15.7336L22.2399 18.4226C19.1873 23.8291 18.4141 25.0605 16.8879 27.0928C14.2127 30.6513 11.9284 32 8.92111 32C5.35367 32 3.09782 30.457 1.7007 28.1315C0.56019 26.2367 0 23.7504 0 20.9173L5.20943 21.1032Z" fill="#0081FB"/>
<path d="M4.10742 6.24921C6.49578 2.57173 9.94245 0 13.8956 0C16.185 0 18.461 0.676859 20.8376 2.61529C23.4373 4.73466 26.2081 8.2245 29.6648 13.9761L30.9043 16.0402C33.8964 21.0195 35.5988 23.5812 36.5951 24.7891C37.8765 26.3405 38.7738 26.8029 39.9394 26.8029C42.8964 26.8029 43.6343 24.0888 43.6343 20.9826L48.2299 20.8385C48.2299 24.0854 47.5892 26.4712 46.499 28.356C45.4457 30.1788 43.3928 32 39.9394 32C37.7926 32 35.8906 31.5342 33.7874 29.5523C32.1706 28.031 30.2804 25.3286 28.8262 22.8993L24.5007 15.6817C22.3304 12.0595 20.3395 9.35874 19.1873 8.13571C17.9478 6.82052 16.3544 5.23225 13.8118 5.23225C11.7538 5.23225 10.0062 6.67476 8.54366 8.88126L4.10742 6.24921Z" fill="url(#paint0_linear_144_2937)"/>
<path d="M13.8119 5.23225C11.7539 5.23225 10.0063 6.67476 8.54373 8.88126C6.47573 11.9992 5.20943 16.6433 5.20943 21.1032C5.20943 22.9428 5.61364 24.3552 6.14196 25.2096L1.7007 28.1315C0.56019 26.2366 0 23.7504 0 20.9173C0 15.7654 1.41557 10.3958 4.1075 6.24921C6.49585 2.57173 9.94253 0 13.8957 0L13.8119 5.23225Z" fill="url(#paint1_linear_144_2937)"/>
<path d="M58.3574 1.01172H64.3837L74.6298 19.5282L84.8775 1.01172H90.773V31.4368H85.857V8.11873L76.8705 24.2662H72.2582L63.2733 8.11873V31.4368H58.3574V1.01172ZM106.177 12.3558C102.651 12.3558 100.528 15.0063 100.019 18.2884H111.985C111.738 14.9074 109.786 12.3558 106.177 12.3558ZM95.1455 20.1581C95.1455 13.2521 99.6136 8.22596 106.262 8.22596C112.802 8.22596 116.706 13.1885 116.706 20.5267V21.8754H100.019C100.612 25.4456 102.983 27.8515 106.807 27.8515C109.858 27.8515 111.765 26.9217 113.573 25.2211L116.184 28.4161C113.724 30.6762 110.594 31.9797 106.633 31.9797C99.4358 31.9797 95.1455 26.7374 95.1455 20.1581ZM122.667 12.7914H118.142V8.77046H122.667V2.12083H127.41V8.77046H134.285V12.7914H127.41V22.9828C127.41 26.4626 128.524 27.699 131.261 27.699C132.51 27.699 133.227 27.5918 134.285 27.4159V31.3933C132.967 31.7652 131.709 31.9361 130.347 31.9361C125.226 31.9361 122.667 29.1416 122.667 23.5474V12.7914ZM154.257 16.7018C153.305 14.2993 151.18 12.53 148.057 12.53C143.998 12.53 141.4 15.4067 141.4 20.0928C141.4 24.6616 143.791 27.6773 147.862 27.6773C151.062 27.6773 153.347 25.8176 154.257 23.5039V16.7018ZM159 31.4368H154.344V28.2637C153.043 30.1317 150.675 31.9797 146.839 31.9797C140.67 31.9797 136.548 26.8211 136.548 20.0928C136.548 13.3007 140.769 8.22596 147.101 8.22596C150.23 8.22596 152.686 9.4758 154.344 11.6823V8.77046H159V31.4368Z" fill="white"/>
</g>
<defs>
<linearGradient id="paint0_linear_144_2937" x1="10.2309" y1="19.6021" x2="43.4396" y2="21.2811" gradientUnits="userSpaceOnUse">
<stop stop-color="#0064E1"/>
<stop offset="0.4" stop-color="#0064E1"/>
<stop offset="0.83" stop-color="#0073EE"/>
<stop offset="1" stop-color="#0082FB"/>
</linearGradient>
<linearGradient id="paint1_linear_144_2937" x1="7.54747" y1="23.288" x2="7.54747" y2="11.0576" gradientUnits="userSpaceOnUse">
<stop stop-color="#0082FB"/>
<stop offset="1" stop-color="#0064E0"/>
</linearGradient>
<clipPath id="clip0_144_2937">
<rect width="159" height="32" fill="white"/>
</clipPath>
</defs>
</svg>
