<svg width="68" height="68" viewBox="0 0 68 68" fill="none" xmlns="http://www.w3.org/2000/svg">
<rect width="68" height="68" rx="20" fill="#0328EE"/>
<g opacity="0.84992" clip-path="url(#clip0_108_3080)">
<path opacity="0.4" d="M43.7179 13H24.3711C17.3207 13 13.3262 16.9946 13.3262 24.0448V43.3733C13.3262 50.4237 17.3207 54.4183 24.3711 54.4183H43.7179C50.7683 54.4183 54.7444 50.4237 54.7444 43.3733V24.0448C54.7444 16.9946 50.7683 13 43.7179 13Z" fill="white"/>
<path d="M24.4424 28.2607C23.5036 28.2607 22.7305 29.0338 22.7305 29.991V44.2205C22.7305 45.1594 23.5036 45.9325 24.4424 45.9325C25.3996 45.9325 26.1728 45.1594 26.1728 44.2205V29.991C26.1728 29.0338 25.3996 28.2607 24.4424 28.2607Z" fill="white"/>
<path d="M34.1084 21.4678C33.1696 21.4678 32.3965 22.2409 32.3965 23.1982V44.2201C32.3965 45.159 33.1696 45.9322 34.1084 45.9322C35.0656 45.9322 35.8387 45.159 35.8387 44.2201V23.1982C35.8387 22.2409 35.0656 21.4678 34.1084 21.4678Z" fill="white"/>
<path d="M43.6445 35.771C42.6873 35.771 41.9141 36.5442 41.9141 37.5014V44.2203C41.9141 45.1592 42.6873 45.9323 43.626 45.9323C44.5832 45.9323 45.3564 45.1592 45.3564 44.2203V37.5014C45.3564 36.5442 44.5832 35.771 43.6445 35.771Z" fill="white"/>
</g>
<defs>
<clipPath id="clip0_108_3080">
<rect width="42" height="42" fill="white" transform="translate(13 13)"/>
</clipPath>
</defs>
</svg>
