<svg width="70" height="90" viewBox="0 0 70 90" fill="none" xmlns="http://www.w3.org/2000/svg">
<g clip-path="url(#clip0_144_2895)">
<path d="M0 80.9486C0.203967 81.7394 0.892734 82.5477 1.83772 82.7502H4.69376L4.83945 82.8074V89.9714H6.62291V82.8074L6.78493 82.7502H9.64349C10.599 82.5055 11.273 81.7394 11.4734 80.9486V80.9312H0V80.9486Z" fill="white"/>
<path d="M17.6508 89.9918H24.4358C25.3797 89.8052 26.0813 88.9785 26.278 88.1782H15.8086C16.004 88.9787 16.7159 89.8052 17.6508 89.9918Z" fill="white"/>
<path d="M17.6508 86.3167H24.4358C25.3797 86.1317 26.0813 85.3047 26.278 84.5034H15.8086C16.004 85.3049 16.7159 86.1317 17.6508 86.3167Z" fill="white"/>
<path d="M17.6508 82.7408H24.4358C25.3797 82.5538 26.0813 81.7275 26.278 80.9268H15.8086C16.004 81.7275 16.7159 82.5538 17.6508 82.7408Z" fill="white"/>
<path d="M33.1246 82.7237H39.3929C40.3379 82.4508 41.1314 81.7352 41.3248 80.9419H31.3676V86.2891H39.5172V88.1656L33.1246 88.1706C32.1229 88.4483 31.2734 89.1169 30.8496 90.0001L31.3676 89.9906H41.2683V84.5113H33.1246V82.7237Z" fill="white"/>
<path d="M54.4566 89.9929C55.3466 89.6179 55.8253 88.9692 56.0087 88.2101H48.0919L48.0969 80.9395L46.3223 80.9444V89.9929H54.4566Z" fill="white"/>
<path d="M61.3705 82.7479H68.1577C69.1004 82.5616 69.8015 81.7346 69.9992 80.9346H59.5293C59.725 81.7348 60.4363 82.5616 61.3705 82.7479Z" fill="white"/>
<path d="M59.8027 84.5181V89.9894H61.5679V86.3466H67.9921V89.9894H69.7559V84.5276L59.8027 84.5181Z" fill="white"/>
<path d="M35.0021 63.0486L43.9134 13.2294C52.4074 13.2294 55.0866 14.1553 55.4735 17.9344C55.4735 17.9344 61.1715 15.8225 64.0454 11.5332C52.8307 6.36752 41.5625 6.13455 41.5625 6.13455L34.9873 14.0954L35.0021 14.0944L28.4269 6.1333C28.4269 6.1333 17.1585 6.36652 5.94531 11.5322C8.81668 15.8215 14.517 17.9334 14.517 17.9334C14.9061 14.154 17.582 13.2282 26.019 13.2222L35.0021 63.0486Z" fill="white"/>
<path d="M34.9994 3.83533C44.0649 3.76642 54.4414 5.22939 65.0638 9.83154C66.4835 7.29138 66.8485 6.16875 66.8485 6.16875C55.2367 1.60205 44.3624 0.0392023 34.9982 0C25.6345 0.0392023 14.7607 1.6023 3.15039 6.16875C3.15039 6.16875 3.66835 7.55156 4.93385 9.83154C15.5542 5.22939 25.9324 3.76642 34.9982 3.83533H34.9994Z" fill="white"/>
</g>
<defs>
<clipPath id="clip0_144_2895">
<rect width="70" height="90" fill="white"/>
</clipPath>
</defs>
</svg>
