<svg width="68" height="68" viewBox="0 0 68 68" fill="none" xmlns="http://www.w3.org/2000/svg">
<rect width="68" height="68" rx="20" fill="#0328EE"/>
<g opacity="0.84992">
<path d="M48.697 19.5031C46.2004 16.491 42.8313 14.3197 39.0497 13.2855C35.2682 12.2514 31.2583 12.4048 27.5674 13.7249C23.8767 15.045 20.6848 17.4674 18.4275 20.6614C16.1702 23.8556 14.9576 27.6656 14.9551 31.5716V36.7537" stroke="white" stroke-opacity="0.4" stroke-width="4.92496" stroke-linecap="round" stroke-linejoin="round"/>
<path d="M21.0117 47.7569C23.6299 50.5202 27.0206 52.437 30.7448 53.2591C34.4691 54.0812 38.3554 53.7708 41.9005 52.3681C45.4455 50.9652 48.4862 48.5347 50.6288 45.3912C52.7713 42.2476 53.9172 38.5358 53.9178 34.7362V31.2861" stroke="white" stroke-opacity="0.4" stroke-width="4.92496" stroke-linecap="round" stroke-linejoin="round"/>
<path d="M23.581 28.2663C23.5701 28.4741 23.5012 28.6759 23.3784 28.8511L15.3073 40.2399C15.0846 40.5528 14.7181 40.7316 14.3337 40.7115C13.9493 40.6914 13.6036 40.4754 13.415 40.1411L6.58318 27.9743C6.38518 27.6202 6.39457 27.1862 6.6114 26.8418C6.82682 26.4959 7.21237 26.2957 7.61913 26.317L22.5221 27.0949C22.9289 27.1162 23.2913 27.3553 23.4693 27.7218C23.5543 27.8944 23.5908 28.0823 23.581 28.2663Z" fill="white"/>
<path d="M44.8522 38.6356C44.8594 38.4304 44.9239 38.2301 45.042 38.0553L52.8082 26.6804C53.0225 26.3679 53.381 26.1852 53.7605 26.1984C54.1402 26.2116 54.485 26.4187 54.6768 26.7453L61.6275 38.6321C61.829 38.9781 61.8273 39.4065 61.6192 39.75C61.4127 40.095 61.0358 40.299 60.6341 40.285L45.9173 39.7731C45.5156 39.7592 45.1538 39.5294 44.972 39.1709C44.8851 39.0021 44.8458 38.8173 44.8522 38.6356Z" fill="white"/>
</g>
</svg>
